<?xml version="1.0" encoding="utf-8"?>
<!-- Generator: Adobe Illustrator 18.1.1, SVG Export Plug-In . SVG Version: 6.00 Build 0)  -->
<svg version="1.1" id="Base" xmlns="http://www.w3.org/2000/svg" xmlns:xlink="http://www.w3.org/1999/xlink" x="0px" y="0px"
	 viewBox="5.5 14 40 20" enable-background="new 5.5 14 40 20" xml:space="preserve">
<g>
	<path fill="#F6F6F6" d="M39.8,33.5c-0.7,0-1.4-0.3-1.9-0.8l-9.8-9.5c-0.7-0.7-1.6-1.1-2.6-1.1c-1,0-1.9,0.4-2.6,1.1l-9.8,9.5
		c-0.5,0.5-1.2,0.8-1.9,0.8c-1.4,0-2.2-0.8-2.5-1.6c-0.4-1-0.2-2,0.6-2.7l14.3-13.8c0.5-0.5,1.2-0.8,1.9-0.8c0.7,0,1.4,0.3,1.9,0.8
		l14.3,13.8c0.8,0.7,1,1.8,0.6,2.7C42,32.6,41.2,33.5,39.8,33.5z"/>
	<path fill="#EDEDED" d="M25.5,15c0.6,0,1.1,0.2,1.5,0.6l14.3,13.8c0.6,0.6,0.8,1.4,0.5,2.2c-0.3,0.6-0.9,1.3-2,1.3
		c-0.6,0-1.1-0.2-1.5-0.6l-9.8-9.5c-0.8-0.8-1.8-1.2-2.9-1.2c-1.1,0-2.1,0.4-2.9,1.2l-9.8,9.5c-0.4,0.4-1,0.6-1.5,0.6
		c-1.1,0-1.8-0.7-2-1.3C8.8,30.8,9,30,9.6,29.4L24,15.6C24.4,15.2,24.9,15,25.5,15 M25.5,14c-0.8,0-1.6,0.3-2.2,0.9L8.9,28.7
		c-2,2-0.6,5.2,2.2,5.2c0.9,0,1.7-0.3,2.2-0.9l9.8-9.5c0.6-0.6,1.4-0.9,2.2-0.9s1.6,0.3,2.2,0.9l9.8,9.5c0.6,0.6,1.4,0.9,2.2,0.9
		c2.8,0,4.3-3.3,2.2-5.2L27.7,14.9C27.1,14.3,26.3,14,25.5,14L25.5,14z"/>
</g>
</svg>
