<?xml version="1.0" encoding="utf-8"?>
<!-- Generator: Adobe Illustrator 18.1.1, SVG Export Plug-In . SVG Version: 6.00 Build 0)  -->
<svg version="1.1" id="Warstwa_1" xmlns="http://www.w3.org/2000/svg" xmlns:xlink="http://www.w3.org/1999/xlink" x="0px" y="0px"
	 viewBox="0 0 50 50" enable-background="new 0 0 50 50" xml:space="preserve">
<g>
	<path fill="#FFFFFF" d="M0,4L0,4c0-2.2,1.8-4,4-4l42,0c2.2,0,4,1.8,4,4v0c0,2.2-1.8,4-4,4H4C1.8,8,0,6.2,0,4z"/>
</g>
<g>
	<path fill="#FFFFFF" d="M0,25L0,25c0-2.2,1.8-4,4-4h42c2.2,0,4,1.8,4,4v0c0,2.2-1.8,4-4,4H4C1.8,29,0,27.2,0,25z"/>
</g>
<g>
	<path fill="#FFFFFF" d="M0,46L0,46c0-2.2,1.8-4,4-4h42c2.2,0,4,1.8,4,4v0c0,2.2-1.8,4-4,4H4C1.8,50,0,48.2,0,46z"/>
</g>
</svg>
