<?xml version="1.0" encoding="utf-8"?>
<!-- Generator: Adobe Illustrator 18.1.1, SVG Export Plug-In . SVG Version: 6.00 Build 0)  -->
<svg version="1.1" id="Warstwa_1" xmlns="http://www.w3.org/2000/svg" xmlns:xlink="http://www.w3.org/1999/xlink" x="0px" y="0px"
	 viewBox="0 0 50 50" enable-background="new 0 0 50 50" xml:space="preserve">
<path display="none" fill="#FAF7FF" d="M38,17v42c0,2.2-1.8,4-4,4l0,0c-2.2,0-4-1.8-4-4V16.8c0-2.2,1.8-4,4-4l0,0
	C36.2,13,38,14.8,38,17z"/>
<path display="none" fill="#FAF7FF" d="M17,17v42c0,2.2-1.8,4-4,4l0,0c-2.2,0-4-1.8-4-4V17c0-2.2,1.8-4,4-4l0,0
	C15.2,13,17,14.8,17,17z"/>
<path display="none" fill="#FAF7FF" d="M-4.2,17v42c0,2.2-1.8,4-4,4l0,0c-2.2,0-4-1.8-4-4V17c0-2.2,1.8-4,4-4l0,0
	C-5.8,13-4.2,14.8-4.2,17z"/>
<circle fill="#FFFFFF" cx="25" cy="25" r="5"/>
<circle fill="#FFFFFF" cx="45" cy="25" r="5"/>
<circle fill="#FFFFFF" cx="5" cy="25" r="5"/>
</svg>
