<?xml version="1.0" encoding="utf-8"?>
<!-- Generator: Adobe Illustrator 18.1.1, SVG Export Plug-In . SVG Version: 6.00 Build 0)  -->
<svg version="1.1" id="Warstwa_1" xmlns="http://www.w3.org/2000/svg" xmlns:xlink="http://www.w3.org/1999/xlink" x="0px" y="0px"
	 viewBox="-12 13 25 25" enable-background="new -12 13 25 25" xml:space="preserve">
<path display="none" fill="#FAF7FF" d="M13,15V36c0,1.1-0.9,2-2,2h0c-1.1,0-2-0.9-2-2l0-21.1c0-1.1,0.9-2,2-2h0
	C12.1,13,13,13.9,13,15z"/>
<path display="none" fill="#FAF7FF" d="M2.5,15V36c0,1.1-0.9,2-2,2h0c-1.1,0-2-0.9-2-2V15c0-1.1,0.9-2,2-2h0C1.6,13,2.5,13.9,2.5,15
	z"/>
<path display="none" fill="#FAF7FF" d="M-8.1,15V36c0,1.1-0.9,2-2,2h0c-1.1,0-2-0.9-2-2V15c0-1.1,0.9-2,2-2h0
	C-8.9,13-8.1,13.9-8.1,15z"/>
<circle fill="#FFFFFF" cx="0.5" cy="25.5" r="2.5"/>
<circle fill="#FFFFFF" cx="10.5" cy="25.5" r="2.5"/>
<circle fill="#FFFFFF" cx="-9.5" cy="25.5" r="2.5"/>
</svg>
