<?xml version="1.0" encoding="utf-8"?>
<!-- Generator: Adobe Illustrator 18.1.1, SVG Export Plug-In . SVG Version: 6.00 Build 0)  -->
<svg version="1.1" id="Base" xmlns="http://www.w3.org/2000/svg" xmlns:xlink="http://www.w3.org/1999/xlink" x="0px" y="0px"
	 viewBox="0 0 1439.9 20" enable-background="new 0 0 1439.9 20" xml:space="preserve">
<text transform="matrix(1 0 0 1 1071.8245 17.8745)" fill="#E30613" font-family="'Calibri'" font-size="25">N</text>
<text transform="matrix(1 0 0 1 1433.937 17.8745)" fill="#FFFFFF" font-family="'Calibri'" font-size="25">S</text>
<text transform="matrix(1 0 0 1 713.937 17.8745)" fill="#FFFFFF" font-family="'Calibri'" font-size="25">S</text>
<text transform="matrix(1 0 0 1 889.3022 17.8746)" fill="#FFFFFF" font-family="'Calibri'" font-size="25">W</text>
<text transform="matrix(1 0 0 1 1253.937 17.8746)" fill="#FFFFFF" font-family="'Calibri'" font-size="25">E</text>
<text transform="matrix(1 0 0 1 351.8245 17.8745)" fill="#E30613" font-family="'Calibri'" font-size="25">N</text>
<text transform="matrix(1 0 0 1 713.937 17.8745)" fill="#FFFFFF" font-family="'Calibri'" font-size="25">S</text>
<text transform="matrix(1 0 0 1 -6.063 17.8745)" fill="#FFFFFF" font-family="'Calibri'" font-size="25">S</text>
<text transform="matrix(1 0 0 1 169.3022 17.8746)" fill="#FFFFFF" font-family="'Calibri'" font-size="25">W</text>
<text transform="matrix(1 0 0 1 533.937 17.8746)" fill="#FFFFFF" font-family="'Calibri'" font-size="25">E</text>
<line fill="#181800" stroke="#DADADA" stroke-miterlimit="10" x1="250.4" y1="4" x2="250.4" y2="16"/>
<line fill="#181800" stroke="#DADADA" stroke-miterlimit="10" x1="260.4" y1="4" x2="260.4" y2="16"/>
<line fill="#181800" stroke="#DADADA" stroke-width="2" stroke-miterlimit="10" x1="269.9" y1="3" x2="269.9" y2="17"/>
<line fill="#181800" stroke="#DADADA" stroke-miterlimit="10" x1="230.4" y1="4" x2="230.4" y2="16"/>
<line fill="#181800" stroke="#DADADA" stroke-miterlimit="10" x1="240.4" y1="4" x2="240.4" y2="16"/>
<line fill="#181800" stroke="#DADADA" stroke-miterlimit="10" x1="210.4" y1="4" x2="210.4" y2="16"/>
<line fill="#181800" stroke="#DADADA" stroke-miterlimit="10" x1="220.4" y1="4" x2="220.4" y2="16"/>
<line fill="#181800" stroke="#DADADA" stroke-miterlimit="10" x1="200.4" y1="4" x2="200.4" y2="16"/>
<line fill="#181800" stroke="#DADADA" stroke-miterlimit="10" x1="330.4" y1="4" x2="330.4" y2="16"/>
<line fill="#181800" stroke="#DADADA" stroke-miterlimit="10" x1="340.4" y1="4" x2="340.4" y2="16"/>
<line fill="#181800" stroke="#DADADA" stroke-miterlimit="10" x1="310.4" y1="4" x2="310.4" y2="16"/>
<line fill="#181800" stroke="#DADADA" stroke-miterlimit="10" x1="320.4" y1="4" x2="320.4" y2="16"/>
<line fill="#181800" stroke="#DADADA" stroke-miterlimit="10" x1="290.4" y1="4" x2="290.4" y2="16"/>
<line fill="#181800" stroke="#DADADA" stroke-miterlimit="10" x1="300.4" y1="4" x2="300.4" y2="16"/>
<line fill="#181800" stroke="#DADADA" stroke-miterlimit="10" x1="280.4" y1="4" x2="280.4" y2="16"/>
<line fill="#181800" stroke="#DADADA" stroke-miterlimit="10" x1="70.4" y1="4" x2="70.4" y2="16"/>
<line fill="#181800" stroke="#DADADA" stroke-miterlimit="10" x1="80.4" y1="4" x2="80.4" y2="16"/>
<line fill="#181800" stroke="#DADADA" stroke-miterlimit="10" x1="50.4" y1="4" x2="50.4" y2="16"/>
<line fill="#181800" stroke="#DADADA" stroke-miterlimit="10" x1="60.4" y1="4" x2="60.4" y2="16"/>
<line fill="#181800" stroke="#DADADA" stroke-miterlimit="10" x1="30.4" y1="4" x2="30.4" y2="16"/>
<line fill="#181800" stroke="#DADADA" stroke-miterlimit="10" x1="40.4" y1="4" x2="40.4" y2="16"/>
<line fill="#181800" stroke="#DADADA" stroke-miterlimit="10" x1="20.4" y1="4" x2="20.4" y2="16"/>
<line fill="#181800" stroke="#DADADA" stroke-miterlimit="10" x1="150.4" y1="4" x2="150.4" y2="16"/>
<line fill="#181800" stroke="#DADADA" stroke-miterlimit="10" x1="160.4" y1="4" x2="160.4" y2="16"/>
<line fill="#181800" stroke="#DADADA" stroke-miterlimit="10" x1="130.4" y1="4" x2="130.4" y2="16"/>
<line fill="#181800" stroke="#DADADA" stroke-miterlimit="10" x1="140.4" y1="4" x2="140.4" y2="16"/>
<line fill="#181800" stroke="#DADADA" stroke-miterlimit="10" x1="110.4" y1="4" x2="110.4" y2="16"/>
<line fill="#181800" stroke="#DADADA" stroke-miterlimit="10" x1="120.4" y1="4" x2="120.4" y2="16"/>
<line fill="#181800" stroke="#DADADA" stroke-miterlimit="10" x1="100.4" y1="4" x2="100.4" y2="16"/>
<line fill="#181800" stroke="#DADADA" stroke-width="2" stroke-miterlimit="10" x1="89.9" y1="3" x2="89.9" y2="17"/>
<line fill="#181800" stroke="#DADADA" stroke-miterlimit="10" x1="430.4" y1="4" x2="430.4" y2="16"/>
<line fill="#181800" stroke="#DADADA" stroke-miterlimit="10" x1="440.4" y1="4" x2="440.4" y2="16"/>
<line fill="#181800" stroke="#DADADA" stroke-miterlimit="10" x1="410.4" y1="4" x2="410.4" y2="16"/>
<line fill="#181800" stroke="#DADADA" stroke-miterlimit="10" x1="420.4" y1="4" x2="420.4" y2="16"/>
<line fill="#181800" stroke="#DADADA" stroke-miterlimit="10" x1="390.4" y1="4" x2="390.4" y2="16"/>
<line fill="#181800" stroke="#DADADA" stroke-miterlimit="10" x1="400.4" y1="4" x2="400.4" y2="16"/>
<line fill="#181800" stroke="#DADADA" stroke-miterlimit="10" x1="380.4" y1="4" x2="380.4" y2="16"/>
<line fill="#181800" stroke="#DADADA" stroke-miterlimit="10" x1="510.4" y1="4" x2="510.4" y2="16"/>
<line fill="#181800" stroke="#DADADA" stroke-miterlimit="10" x1="520.4" y1="4" x2="520.4" y2="16"/>
<line fill="#181800" stroke="#DADADA" stroke-miterlimit="10" x1="490.4" y1="4" x2="490.4" y2="16"/>
<line fill="#181800" stroke="#DADADA" stroke-miterlimit="10" x1="500.4" y1="4" x2="500.4" y2="16"/>
<line fill="#181800" stroke="#DADADA" stroke-miterlimit="10" x1="470.4" y1="4" x2="470.4" y2="16"/>
<line fill="#181800" stroke="#DADADA" stroke-miterlimit="10" x1="480.4" y1="4" x2="480.4" y2="16"/>
<line fill="#181800" stroke="#DADADA" stroke-miterlimit="10" x1="460.4" y1="4" x2="460.4" y2="16"/>
<line fill="#181800" stroke="#DADADA" stroke-width="2" stroke-miterlimit="10" x1="449.9" y1="3" x2="449.9" y2="17"/>
<line fill="#181800" stroke="#DADADA" stroke-miterlimit="10" x1="610.4" y1="4" x2="610.4" y2="16"/>
<line fill="#181800" stroke="#DADADA" stroke-miterlimit="10" x1="620.4" y1="4" x2="620.4" y2="16"/>
<line fill="#181800" stroke="#DADADA" stroke-miterlimit="10" x1="590.4" y1="4" x2="590.4" y2="16"/>
<line fill="#181800" stroke="#DADADA" stroke-miterlimit="10" x1="600.4" y1="4" x2="600.4" y2="16"/>
<line fill="#181800" stroke="#DADADA" stroke-miterlimit="10" x1="570.4" y1="4" x2="570.4" y2="16"/>
<line fill="#181800" stroke="#DADADA" stroke-miterlimit="10" x1="580.4" y1="4" x2="580.4" y2="16"/>
<line fill="#181800" stroke="#DADADA" stroke-miterlimit="10" x1="560.4" y1="4" x2="560.4" y2="16"/>
<line fill="#181800" stroke="#DADADA" stroke-miterlimit="10" x1="690.4" y1="4" x2="690.4" y2="16"/>
<line fill="#181800" stroke="#DADADA" stroke-miterlimit="10" x1="700.4" y1="4" x2="700.4" y2="16"/>
<line fill="#181800" stroke="#DADADA" stroke-miterlimit="10" x1="670.4" y1="4" x2="670.4" y2="16"/>
<line fill="#181800" stroke="#DADADA" stroke-miterlimit="10" x1="680.4" y1="4" x2="680.4" y2="16"/>
<line fill="#181800" stroke="#DADADA" stroke-miterlimit="10" x1="650.4" y1="4" x2="650.4" y2="16"/>
<line fill="#181800" stroke="#DADADA" stroke-miterlimit="10" x1="660.4" y1="4" x2="660.4" y2="16"/>
<line fill="#181800" stroke="#DADADA" stroke-miterlimit="10" x1="640.4" y1="4" x2="640.4" y2="16"/>
<line fill="#181800" stroke="#DADADA" stroke-width="2" stroke-miterlimit="10" x1="629.9" y1="3" x2="629.9" y2="17"/>
<line fill="#181800" stroke="#DADADA" stroke-miterlimit="10" x1="970.4" y1="4" x2="970.4" y2="16"/>
<line fill="#181800" stroke="#DADADA" stroke-miterlimit="10" x1="980.4" y1="4" x2="980.4" y2="16"/>
<line fill="#181800" stroke="#DADADA" stroke-miterlimit="10" x1="950.4" y1="4" x2="950.4" y2="16"/>
<line fill="#181800" stroke="#DADADA" stroke-miterlimit="10" x1="960.4" y1="4" x2="960.4" y2="16"/>
<line fill="#181800" stroke="#DADADA" stroke-miterlimit="10" x1="930.4" y1="4" x2="930.4" y2="16"/>
<line fill="#181800" stroke="#DADADA" stroke-miterlimit="10" x1="940.4" y1="4" x2="940.4" y2="16"/>
<line fill="#181800" stroke="#DADADA" stroke-miterlimit="10" x1="920.4" y1="4" x2="920.4" y2="16"/>
<line fill="#181800" stroke="#DADADA" stroke-miterlimit="10" x1="1050.4" y1="4" x2="1050.4" y2="16"/>
<line fill="#181800" stroke="#DADADA" stroke-miterlimit="10" x1="1060.4" y1="4" x2="1060.4" y2="16"/>
<line fill="#181800" stroke="#DADADA" stroke-miterlimit="10" x1="1030.4" y1="4" x2="1030.4" y2="16"/>
<line fill="#181800" stroke="#DADADA" stroke-miterlimit="10" x1="1040.4" y1="4" x2="1040.4" y2="16"/>
<line fill="#181800" stroke="#DADADA" stroke-miterlimit="10" x1="1010.4" y1="4" x2="1010.4" y2="16"/>
<line fill="#181800" stroke="#DADADA" stroke-miterlimit="10" x1="1020.4" y1="4" x2="1020.4" y2="16"/>
<line fill="#181800" stroke="#DADADA" stroke-miterlimit="10" x1="1000.4" y1="4" x2="1000.4" y2="16"/>
<line fill="#181800" stroke="#DADADA" stroke-width="2" stroke-miterlimit="10" x1="989.9" y1="3" x2="989.9" y2="17"/>
<line fill="#181800" stroke="#DADADA" stroke-miterlimit="10" x1="790.4" y1="4" x2="790.4" y2="16"/>
<line fill="#181800" stroke="#DADADA" stroke-miterlimit="10" x1="800.4" y1="4" x2="800.4" y2="16"/>
<line fill="#181800" stroke="#DADADA" stroke-miterlimit="10" x1="770.4" y1="4" x2="770.4" y2="16"/>
<line fill="#181800" stroke="#DADADA" stroke-miterlimit="10" x1="780.4" y1="4" x2="780.4" y2="16"/>
<line fill="#181800" stroke="#DADADA" stroke-miterlimit="10" x1="750.4" y1="4" x2="750.4" y2="16"/>
<line fill="#181800" stroke="#DADADA" stroke-miterlimit="10" x1="760.4" y1="4" x2="760.4" y2="16"/>
<line fill="#181800" stroke="#DADADA" stroke-miterlimit="10" x1="740.4" y1="4" x2="740.4" y2="16"/>
<line fill="#181800" stroke="#DADADA" stroke-miterlimit="10" x1="870.4" y1="4" x2="870.4" y2="16"/>
<line fill="#181800" stroke="#DADADA" stroke-miterlimit="10" x1="880.4" y1="4" x2="880.4" y2="16"/>
<line fill="#181800" stroke="#DADADA" stroke-miterlimit="10" x1="850.4" y1="4" x2="850.4" y2="16"/>
<line fill="#181800" stroke="#DADADA" stroke-miterlimit="10" x1="860.4" y1="4" x2="860.4" y2="16"/>
<line fill="#181800" stroke="#DADADA" stroke-miterlimit="10" x1="830.4" y1="4" x2="830.4" y2="16"/>
<line fill="#181800" stroke="#DADADA" stroke-miterlimit="10" x1="840.4" y1="4" x2="840.4" y2="16"/>
<line fill="#181800" stroke="#DADADA" stroke-miterlimit="10" x1="820.4" y1="4" x2="820.4" y2="16"/>
<line fill="#181800" stroke="#DADADA" stroke-width="2" stroke-miterlimit="10" x1="809.9" y1="3" x2="809.9" y2="17"/>
<line fill="#181800" stroke="#DADADA" stroke-miterlimit="10" x1="1150.4" y1="4" x2="1150.4" y2="16"/>
<line fill="#181800" stroke="#DADADA" stroke-miterlimit="10" x1="1160.4" y1="4" x2="1160.4" y2="16"/>
<line fill="#181800" stroke="#DADADA" stroke-miterlimit="10" x1="1130.4" y1="4" x2="1130.4" y2="16"/>
<line fill="#181800" stroke="#DADADA" stroke-miterlimit="10" x1="1140.4" y1="4" x2="1140.4" y2="16"/>
<line fill="#181800" stroke="#DADADA" stroke-miterlimit="10" x1="1110.4" y1="4" x2="1110.4" y2="16"/>
<line fill="#181800" stroke="#DADADA" stroke-miterlimit="10" x1="1120.4" y1="4" x2="1120.4" y2="16"/>
<line fill="#181800" stroke="#DADADA" stroke-miterlimit="10" x1="1100.4" y1="4" x2="1100.4" y2="16"/>
<line fill="#181800" stroke="#DADADA" stroke-miterlimit="10" x1="1230.4" y1="4" x2="1230.4" y2="16"/>
<line fill="#181800" stroke="#DADADA" stroke-miterlimit="10" x1="1240.4" y1="4" x2="1240.4" y2="16"/>
<line fill="#181800" stroke="#DADADA" stroke-miterlimit="10" x1="1210.4" y1="4" x2="1210.4" y2="16"/>
<line fill="#181800" stroke="#DADADA" stroke-miterlimit="10" x1="1220.4" y1="4" x2="1220.4" y2="16"/>
<line fill="#181800" stroke="#DADADA" stroke-miterlimit="10" x1="1190.4" y1="4" x2="1190.4" y2="16"/>
<line fill="#181800" stroke="#DADADA" stroke-miterlimit="10" x1="1200.4" y1="4" x2="1200.4" y2="16"/>
<line fill="#181800" stroke="#DADADA" stroke-miterlimit="10" x1="1180.4" y1="4" x2="1180.4" y2="16"/>
<line fill="#181800" stroke="#DADADA" stroke-width="2" stroke-miterlimit="10" x1="1169.9" y1="3" x2="1169.9" y2="17"/>
<line fill="#181800" stroke="#DADADA" stroke-miterlimit="10" x1="1330.4" y1="4" x2="1330.4" y2="16"/>
<line fill="#181800" stroke="#DADADA" stroke-miterlimit="10" x1="1340.4" y1="4" x2="1340.4" y2="16"/>
<line fill="#181800" stroke="#DADADA" stroke-miterlimit="10" x1="1310.4" y1="4" x2="1310.4" y2="16"/>
<line fill="#181800" stroke="#DADADA" stroke-miterlimit="10" x1="1320.4" y1="4" x2="1320.4" y2="16"/>
<line fill="#181800" stroke="#DADADA" stroke-miterlimit="10" x1="1290.4" y1="4" x2="1290.4" y2="16"/>
<line fill="#181800" stroke="#DADADA" stroke-miterlimit="10" x1="1300.4" y1="4" x2="1300.4" y2="16"/>
<line fill="#181800" stroke="#DADADA" stroke-miterlimit="10" x1="1280.4" y1="4" x2="1280.4" y2="16"/>
<line fill="#181800" stroke="#DADADA" stroke-miterlimit="10" x1="1410.4" y1="4" x2="1410.4" y2="16"/>
<line fill="#181800" stroke="#DADADA" stroke-miterlimit="10" x1="1420.4" y1="4" x2="1420.4" y2="16"/>
<line fill="#181800" stroke="#DADADA" stroke-miterlimit="10" x1="1390.4" y1="4" x2="1390.4" y2="16"/>
<line fill="#181800" stroke="#DADADA" stroke-miterlimit="10" x1="1400.4" y1="4" x2="1400.4" y2="16"/>
<line fill="#181800" stroke="#DADADA" stroke-miterlimit="10" x1="1370.4" y1="4" x2="1370.4" y2="16"/>
<line fill="#181800" stroke="#DADADA" stroke-miterlimit="10" x1="1380.4" y1="4" x2="1380.4" y2="16"/>
<line fill="#181800" stroke="#DADADA" stroke-miterlimit="10" x1="1360.4" y1="4" x2="1360.4" y2="16"/>
<line fill="#181800" stroke="#DADADA" stroke-width="2" stroke-miterlimit="10" x1="1349.9" y1="3" x2="1349.9" y2="17"/>
</svg>
