<?xml version="1.0" encoding="utf-8"?>
<!-- Generator: Adobe Illustrator 18.1.1, SVG Export Plug-In . SVG Version: 6.00 Build 0)  -->
<svg version="1.1" id="Warstwa_1" xmlns="http://www.w3.org/2000/svg" xmlns:xlink="http://www.w3.org/1999/xlink" x="0px" y="0px"
	 viewBox="-12 14 24 24" enable-background="new -12 14 24 24" xml:space="preserve">
<path fill="#1E1E1E" d="M9.8,25.4c-0.1-0.1-2.1-2.9-4.8-4.9c-1.4-1-3.2-1.6-5-1.6c-1.8,0-3.6,0.6-5,1.6c-2.7,1.9-4.7,4.8-4.8,4.9
	c-0.2,0.3-0.2,0.8,0,1.1c0.1,0.1,2.1,2.9,4.8,4.9c1.4,1,3.2,1.6,5,1.6c1.8,0,3.6-0.6,5-1.6c2.7-1.9,4.7-4.8,4.8-4.9
	C10.1,26.2,10.1,25.8,9.8,25.4z M0,29.5c-1.9,0-3.5-1.6-3.5-3.5c0-1.9,1.6-3.5,3.5-3.5c1.9,0,3.5,1.6,3.5,3.5
	C3.5,27.9,1.9,29.5,0,29.5z"/>
<path fill="#1E1E1E" d="M2,26c0,1.1-0.9,2-2,2c-1.1,0-2-0.9-2-2c0-1.1,0.9-2,2-2C1.1,24,2,24.9,2,26z"/>
</svg>
