<?xml version="1.0" encoding="utf-8"?>
<!-- Generator: Adobe Illustrator 18.1.1, SVG Export Plug-In . SVG Version: 6.00 Build 0)  -->
<svg version="1.2" baseProfile="tiny" id="Warstwa_1"
	 xmlns="http://www.w3.org/2000/svg" xmlns:xlink="http://www.w3.org/1999/xlink" x="0px" y="0px" viewBox="0 0 56.266 14"
	 xml:space="preserve">
<g>
	<path fill="#FFFFFF" d="M2.886,13.094c-1.945,0-2.236-1.127-2.236-1.799v-8.74c0-0.681,0.291-1.821,2.236-1.821h4.738
		c1.945,0,2.236,1.141,2.236,1.821v2.328H5.365V4.354h-0.22v5.143h0.22V5.104H9.86v7.99H2.886z"/>
	<path d="M7.624,1.084c1.257,0,1.886,0.491,1.886,1.472v1.979H5.715V4.005h-0.92v5.842h0.92V5.454H9.51v7.291H2.885
		C1.628,12.745,1,12.261,1,11.296v-8.74c0-0.98,0.628-1.472,1.886-1.472H7.624 M7.624,0.384H2.885C0.552,0.384,0.3,1.902,0.3,2.555
		v8.74c0,0.646,0.252,2.149,2.586,2.149H9.51h0.7v-0.7V5.454v-0.22v-0.7V2.555C10.21,1.902,9.958,0.384,7.624,0.384L7.624,0.384z"/>
</g>
<g>
	<path fill="#FFFFFF" d="M11.574,13.094c-1.446,0-1.663-0.851-1.663-1.357V4.283h6.62v7.454c0,0.507-0.216,1.357-1.662,1.357H11.574
		z"/>
	<path d="M16.181,4.633v7.104c0,0.672-0.438,1.008-1.312,1.008h-3.296c-0.875,0-1.313-0.336-1.313-1.008V4.633h2.64v6.096h0.641
		V4.633H16.181 M16.881,3.933h-0.7h-2.58h-0.7h-2.64h-0.7v0.7v7.104c0,0.401,0.145,1.708,2.013,1.708h3.296
		c1.866,0,2.012-1.307,2.012-1.708V4.633V3.933L16.881,3.933z"/>
</g>
<g>
	<path fill="#FFFFFF" d="M18.25,13.094c-1.446,0-1.663-0.851-1.663-1.357v-6.08c0-0.514,0.216-1.374,1.663-1.374h3.296
		c1.446,0,1.662,0.86,1.662,1.374v6.08c0,0.507-0.216,1.357-1.662,1.357H18.25z"/>
	<path d="M21.546,4.633c0.874,0,1.312,0.342,1.312,1.024v4.048h-3.28v1.023h0.641v-0.512h2.64v1.521
		c0,0.672-0.438,1.008-1.312,1.008H18.25c-0.875,0-1.313-0.336-1.313-1.008v-6.08c0-0.683,0.438-1.024,1.313-1.024H21.546
		 M19.577,7.673h0.641V6.665h-0.641V7.673 M21.546,3.933H18.25c-1.867,0-2.013,1.32-2.013,1.724v6.08
		c0,0.401,0.145,1.708,2.013,1.708h3.296c1.866,0,2.012-1.307,2.012-1.708v-1.332v-0.7V5.657
		C23.557,5.252,23.412,3.933,21.546,3.933L21.546,3.933z"/>
</g>
<g>
	<g>
		<path fill="#FFFFFF" d="M24.833,13.094c-1.446,0-1.662-0.851-1.662-1.357v-1.87h0.688c-0.58-0.283-0.688-0.821-0.688-1.186V5.657
			c0-0.514,0.216-1.374,1.662-1.374h3.296c1.446,0,1.662,0.86,1.662,1.374V7.51h-0.686c0.578,0.28,0.686,0.812,0.686,1.171v3.056
			c0,0.507-0.211,1.358-1.622,1.358L24.833,13.094z"/>
		<path d="M28.129,4.632c0.875,0,1.312,0.342,1.312,1.024v1.504h-2.64V6.665h-0.64v1.009h1.968c0.875,0,1.312,0.336,1.312,1.008
			v3.056c0,0.672-0.424,1.008-1.272,1.008c-0.013,0-0.027,0-0.04,0h-3.296c-0.875,0-1.312-0.336-1.312-1.008v-1.521h2.64v0.513h0.64
			V9.705h-1.968c-0.875,0-1.312-0.341-1.312-1.023V5.657c0-0.683,0.438-1.024,1.312-1.024H28.129 M28.129,3.932h-3.296
			c-1.867,0-2.012,1.32-2.012,1.724v3.024c0,0.171,0.026,0.506,0.197,0.835h-0.197v0.7v1.521c0,0.401,0.145,1.708,2.012,1.708h3.296
			c1.87,0,2.012-1.307,2.012-1.708V8.681c0-0.168-0.026-0.496-0.194-0.821h0.194v-0.7V5.657C30.141,5.252,29.995,3.932,28.129,3.932
			L28.129,3.932z"/>
	</g>
</g>
<g>
	<path fill="#FFFFFF" d="M49.083,13.094V4.283h4.958c1.446,0,1.662,0.86,1.662,1.374v2.239c0,0.234-0.072,0.53-0.352,0.789
		c0.28,0.261,0.352,0.551,0.352,0.779v3.63H49.083z"/>
	<path d="M54.041,4.633c0.874,0,1.312,0.342,1.312,1.024v2.239c0,0.342-0.219,0.604-0.656,0.784
		c0.438,0.192,0.656,0.454,0.656,0.784v3.28h-2.64v-3.04h-0.641v3.04h-2.64V4.633H54.041 M52.072,7.673h0.641V6.665h-0.641V7.673
		 M54.041,3.933h-4.608h-0.7v0.7v8.112v0.7h0.7h2.64h0.7h2.58h0.7v-0.7v-3.28c0-0.198-0.043-0.489-0.242-0.779
		c0.199-0.291,0.242-0.587,0.242-0.789V5.657C56.053,5.252,55.908,3.933,54.041,3.933L54.041,3.933z"/>
</g>
<g>
	<path d="M31.491,13.522c-0.704,0-1.286-0.229-1.731-0.683c-0.378-0.389-0.57-0.809-0.57-1.247c0-0.562,0.235-1.062,0.7-1.488
		c0.458-0.421,0.968-0.634,1.515-0.634c0.438,0,0.754,0.01,0.95,0.028c0.153,0.015,0.345,0.045,0.572,0.094l0.127-0.281
		c-0.572-0.009-0.986-0.038-1.26-0.088c-0.341-0.063-0.656-0.171-0.935-0.321c-0.427-0.239-0.723-0.524-0.882-0.851
		c-0.154-0.315-0.232-0.698-0.232-1.139c0-0.417,0.123-0.826,0.366-1.216c0.213-0.343,0.494-0.608,0.834-0.791
		c0.023-0.456,0.147-0.888,0.37-1.287c0.179-0.327,0.486-0.75,0.937-1.29c0.443-0.528,0.89-1.01,1.329-1.432l0.115-0.111
		l2.968,1.161l0.427-0.876l0.78,0.428L36.41,4.531c0.063-0.003,0.133-0.004,0.208-0.004c1.051,0,1.955,0.246,2.687,0.73
		c0.962,0.634,1.451,1.599,1.451,2.869c0,0.736-0.208,1.464-0.618,2.163c-0.354,0.598-0.856,1.18-1.491,1.729
		c-0.501,0.434-1.139,0.895-1.896,1.369l-0.114,0.071l-0.123-0.056c-0.216-0.1-0.455-0.227-0.714-0.381
		c-0.244-0.145-0.406-0.237-0.49-0.279l-0.758-0.357c-0.509,0.296-0.998,0.542-1.455,0.732
		C32.442,13.39,31.917,13.522,31.491,13.522z M31.107,11.411c-0.188,0-0.373,0.045-0.55,0.134c-0.16,0.08-0.182,0.162-0.182,0.24
		c0,0.204,0.103,0.394,0.314,0.58c0.221,0.195,0.456,0.29,0.717,0.29c0.535,0,1.047-0.125,1.522-0.372
		c0.054-0.025,0.188-0.099,0.564-0.333c-0.341-0.155-0.712-0.276-1.107-0.361C31.83,11.47,31.4,11.411,31.107,11.411z
		 M37.875,11.215c0.299-0.211,0.58-0.56,0.835-1.04c0.288-0.537,0.434-1.017,0.434-1.423c0-0.661-0.207-1.173-0.631-1.565
		c-0.425-0.393-1.02-0.592-1.767-0.592c-0.245,0-0.487,0.003-0.728,0.009c-0.197,0.004-0.418,0.025-0.665,0.063L35.16,7.109
		c0.098-0.01,0.19-0.018,0.276-0.022c0.203-0.011,0.445-0.016,0.726-0.016h0.199c0.509,0,0.979,0.093,1.396,0.277
		c0.675,0.293,1.032,0.798,1.032,1.46c0,0.492-0.191,0.938-0.569,1.326c-0.231,0.233-0.574,0.49-1.041,0.781L37.875,11.215z
		 M36.036,10.463c0.109-0.055,0.276-0.177,0.519-0.439c0.318-0.346,0.338-0.464,0.339-0.469c0-0.216-0.047-0.305-0.071-0.32
		c-0.028-0.018-0.157-0.079-0.59-0.079c-0.543,0-0.946,0.009-1.208,0.025c-0.234,0.016-0.541,0.054-0.917,0.111l-0.241,0.486
		L36.036,10.463z M31.303,5.793c-0.069,0.11-0.104,0.23-0.104,0.365c0,0.369,0.108,0.646,0.33,0.845
		c0.312,0.278,0.845,0.42,1.585,0.42c0.158,0,0.316-0.013,0.475-0.037c0.133-0.021,0.281-0.055,0.446-0.101l0.217-0.444
		c-0.075,0.013-0.151,0.026-0.229,0.039c-0.273,0.046-0.478,0.067-0.61,0.067c-0.478,0-0.915-0.14-1.299-0.415
		c-0.237-0.172-0.495-0.429-0.783-0.78C31.321,5.766,31.311,5.78,31.303,5.793z M33.627,2.959c-0.286,0-0.529,0.07-0.743,0.215
		C32.628,3.341,32.51,3.56,32.51,3.863c0,0.236,0.076,0.432,0.231,0.598c0.219,0.238,0.55,0.354,1.014,0.354
		c0.436,0,0.74-0.013,0.902-0.037c0.157-0.023,0.382-0.073,0.676-0.149l0.375-0.762c-0.335-0.268-0.688-0.482-1.049-0.64
		C34.252,3.049,33.905,2.959,33.627,2.959z"/>
	<path fill="#FFFFFF" d="M33.755,1.077l3.033,1.188l0.413-0.848l0.342,0.188L35.99,4.825c0.095-0.017,0.19-0.028,0.285-0.036
		c0.095-0.008,0.209-0.012,0.342-0.012c1.006,0,1.855,0.229,2.549,0.688c0.893,0.588,1.339,1.476,1.339,2.661
		c0,0.695-0.195,1.374-0.584,2.036c-0.342,0.577-0.821,1.133-1.438,1.667c-0.493,0.428-1.115,0.877-1.865,1.347
		c-0.209-0.096-0.439-0.219-0.69-0.368c-0.252-0.149-0.42-0.245-0.506-0.288l-0.883-0.416c-0.541,0.32-1.054,0.582-1.538,0.784
		c-0.617,0.256-1.12,0.384-1.509,0.384c-0.637,0-1.154-0.202-1.553-0.607c-0.332-0.342-0.498-0.698-0.498-1.072
		c0-0.49,0.206-0.925,0.619-1.304c0.413-0.379,0.861-0.568,1.346-0.568c0.427,0,0.735,0.009,0.926,0.027
		c0.189,0.018,0.437,0.062,0.74,0.133l0.37-0.816c-0.75,0-1.284-0.028-1.602-0.087c-0.318-0.059-0.605-0.157-0.861-0.295
		c-0.38-0.213-0.639-0.46-0.776-0.741c-0.138-0.281-0.207-0.624-0.207-1.028c0-0.371,0.109-0.732,0.328-1.083
		c0.218-0.351,0.508-0.605,0.868-0.766c0-0.473,0.114-0.915,0.342-1.323c0.171-0.313,0.475-0.729,0.911-1.252
		C32.882,1.967,33.318,1.497,33.755,1.077 M33.755,5.064c0.446,0,0.76-0.013,0.939-0.04c0.181-0.026,0.451-0.088,0.813-0.184
		l0.513-1.042C35.62,3.457,35.2,3.189,34.759,2.997c-0.441-0.192-0.818-0.288-1.132-0.288c-0.333,0-0.627,0.085-0.883,0.257
		c-0.323,0.213-0.484,0.513-0.484,0.897c0,0.299,0.1,0.556,0.299,0.769C32.824,4.921,33.223,5.064,33.755,5.064 M33.114,7.673
		c0.171,0,0.342-0.014,0.513-0.04c0.171-0.027,0.365-0.073,0.584-0.139l0.483-0.989c-0.218,0.043-0.455,0.086-0.712,0.128
		c-0.256,0.043-0.446,0.064-0.569,0.064c-0.427,0-0.812-0.123-1.153-0.368c-0.266-0.192-0.574-0.518-0.926-0.977
		c-0.114,0.129-0.194,0.231-0.242,0.307c-0.095,0.15-0.143,0.316-0.143,0.499c0,0.44,0.138,0.784,0.413,1.031
		C31.724,7.511,32.307,7.673,33.114,7.673 M34.752,7.417c0.266-0.043,0.498-0.069,0.697-0.08c0.199-0.011,0.437-0.016,0.712-0.016
		c0.086,0,0.152,0,0.199,0c0.475,0,0.907,0.085,1.296,0.256c0.589,0.256,0.883,0.666,0.883,1.231c0,0.427-0.166,0.811-0.498,1.152
		c-0.275,0.277-0.745,0.608-1.409,0.992l1.267,0.544c0.38-0.225,0.724-0.626,1.032-1.204c0.309-0.577,0.463-1.091,0.463-1.541
		c0-0.728-0.237-1.311-0.712-1.749c-0.475-0.438-1.12-0.658-1.937-0.658c-0.247,0-0.491,0.003-0.733,0.009
		c-0.242,0.005-0.52,0.035-0.833,0.089L34.752,7.417 M36.048,10.728c0.189-0.063,0.42-0.242,0.69-0.535
		c0.271-0.294,0.405-0.505,0.405-0.633c0-0.277-0.062-0.456-0.185-0.536c-0.124-0.079-0.365-0.119-0.727-0.119
		c-0.551,0-0.959,0.009-1.225,0.026c-0.266,0.018-0.622,0.063-1.067,0.133l-0.428,0.864L36.048,10.728 M31.405,12.905
		c0.579,0,1.125-0.134,1.638-0.4c0.114-0.054,0.432-0.245,0.954-0.576c-0.466-0.267-0.985-0.461-1.56-0.584
		c-0.574-0.122-1.018-0.184-1.331-0.184c-0.228,0-0.449,0.054-0.662,0.16c-0.214,0.106-0.32,0.261-0.32,0.464
		c0,0.277,0.133,0.533,0.398,0.768C30.788,12.787,31.082,12.905,31.405,12.905 M33.639,0.495l-0.231,0.222
		c-0.446,0.429-0.899,0.917-1.347,1.451c-0.463,0.554-0.779,0.99-0.967,1.333c-0.217,0.389-0.348,0.811-0.389,1.254
		c-0.325,0.199-0.596,0.47-0.807,0.811c-0.268,0.429-0.403,0.882-0.403,1.347c0,0.479,0.087,0.899,0.258,1.248
		c0.183,0.373,0.513,0.695,0.981,0.958c0.091,0.049,0.186,0.094,0.282,0.135c-0.464,0.079-0.898,0.303-1.295,0.667
		c-0.518,0.475-0.781,1.038-0.781,1.672c0,0.506,0.215,0.984,0.639,1.421c0.496,0.504,1.138,0.759,1.911,0.759
		c0.459,0,1.015-0.138,1.7-0.422c0.433-0.181,0.893-0.41,1.371-0.682l0.645,0.304c0.07,0.035,0.228,0.126,0.464,0.266
		c0.266,0.158,0.514,0.29,0.737,0.393l0.245,0.112l0.228-0.143c0.768-0.481,1.417-0.95,1.927-1.393
		c0.655-0.567,1.173-1.169,1.541-1.79c0.434-0.74,0.654-1.51,0.654-2.291c0-1.359-0.526-2.395-1.564-3.079
		c-0.727-0.482-1.613-0.74-2.633-0.768l1.185-2.458l0.206-0.427l-0.416-0.228l-0.342-0.187l-0.46-0.252l-0.23,0.472l-0.211,0.433
		l-2.604-1.019L33.639,0.495L33.639,0.495z M33.755,4.564c-0.39,0-0.661-0.089-0.828-0.271c-0.115-0.123-0.167-0.258-0.167-0.43
		c0-0.217,0.078-0.36,0.259-0.48c0.176-0.118,0.374-0.174,0.608-0.174c0.243,0,0.557,0.083,0.932,0.246
		c0.285,0.124,0.564,0.286,0.834,0.484L35.16,4.414c-0.235,0.059-0.415,0.098-0.537,0.116C34.516,4.545,34.283,4.564,33.755,4.564
		L33.755,4.564z M33.053,7.172c-0.636-0.007-1.104-0.13-1.358-0.356c-0.094-0.085-0.218-0.232-0.242-0.545
		c0.181,0.192,0.351,0.345,0.513,0.463C32.297,6.971,32.661,7.117,33.053,7.172L33.053,7.172z M38.472,7.502
		c-0.16-0.143-0.362-0.274-0.616-0.384c-0.321-0.141-0.671-0.233-1.044-0.273c0.659,0.011,1.161,0.183,1.531,0.525
		C38.388,7.412,38.431,7.457,38.472,7.502L38.472,7.502z M34.273,9.519c0.317-0.046,0.574-0.076,0.768-0.089
		c0.253-0.017,0.654-0.025,1.192-0.025c0.214,0,0.338,0.016,0.404,0.029c0.003,0.019,0.005,0.044,0.007,0.075
		c-0.024,0.043-0.092,0.149-0.272,0.345c-0.167,0.18-0.287,0.28-0.367,0.336L34.22,9.627L34.273,9.519L34.273,9.519z M37.707,10.87
		c0.218-0.15,0.401-0.292,0.552-0.427c-0.136,0.2-0.276,0.361-0.42,0.483L37.707,10.87L37.707,10.87z M30.624,11.792
		c0.006-0.003,0.02-0.012,0.043-0.024c0.145-0.073,0.289-0.108,0.439-0.108c0.275,0,0.688,0.058,1.227,0.173
		c0.206,0.044,0.406,0.099,0.598,0.164c-0.061,0.035-0.089,0.049-0.101,0.055c-0.457,0.237-0.93,0.353-1.425,0.353
		c-0.201,0-0.376-0.072-0.552-0.227C30.635,11.985,30.625,11.846,30.624,11.792L30.624,11.792z"/>
</g>
<g>
	<path d="M47.365,13.212c-0.353-0.346-0.615-0.705-0.779-1.066c-0.037-0.079-0.105-0.248-0.262-0.776
		c-0.307,0.255-0.592,0.511-0.853,0.764l-1.168,1.132l-0.164-0.095c-0.317-0.185-0.874-0.549-1.653-1.083
		c-0.749-0.504-0.929-0.573-0.967-0.582c-0.102,0.002-0.201,0.028-0.276,0.083c-0.047,0.033-0.075,0.144-0.075,0.293
		c0,0.015,0.005,0.072,0.076,0.198c0.093,0.167,0.138,0.312,0.138,0.441c0,0.205-0.036,0.369-0.111,0.5
		c-0.07,0.121-0.214,0.263-0.509,0.263c-0.158,0-0.382-0.054-0.556-0.311c-0.119-0.174-0.179-0.396-0.179-0.66
		c0-0.195,0.083-0.563,0.731-1.692c0.137-0.234,0.523-0.863,1.16-1.884c-0.52-0.604-0.801-0.938-0.846-0.997
		c-0.515-0.717-0.775-1.635-0.775-2.73c0-0.97,0.406-1.896,1.207-2.752c0.842-0.903,1.819-1.362,2.902-1.362
		c0.769,0,1.451,0.157,2.027,0.469c0.159,0.086,0.455,0.273,0.886,0.564c0.247-0.358,0.583-0.633,1.001-0.819
		c0.165-0.07,0.392-0.139,0.685-0.207l0.203-0.048l0.169,0.387l-0.152,0.18c-0.263,0.168-0.463,0.334-0.597,0.494
		c-0.202,0.234-0.298,0.475-0.298,0.737v7.067c0,0.307,0.035,0.586,0.104,0.829c0.046,0.164,0.099,0.219,0.115,0.219
		c0.205,0,0.389-0.074,0.562-0.226l0.217-0.191l0.428,0.657l-0.151,0.144c-0.329,0.312-0.583,0.558-0.761,0.741
		c-0.528,0.539-0.896,0.969-1.094,1.276l-0.166,0.259L47.365,13.212z M45.211,11.197l0.954-0.822V9.251h-3.399l-0.324,0.517
		L45.211,11.197z M43.979,2.69c-0.577,0-1.156,0.269-1.723,0.8c-0.618,0.577-0.918,1.188-0.918,1.871
		c0,0.563,0.097,1.082,0.288,1.541c0.156,0.377,0.415,0.729,0.77,1.05l1.863-3.035c-0.054-0.053-0.107-0.104-0.158-0.157
		c-0.028-0.015-0.118-0.037-0.234-0.037c-0.381,0-0.707,0.246-0.995,0.753L42.545,6.05L42.41,5.403
		c-0.013-0.061-0.019-0.146-0.019-0.259c0-0.455,0.167-0.878,0.495-1.259c0.337-0.392,0.763-0.591,1.264-0.591
		c0.376,0,0.594,0.009,0.655,0.02c0.126,0.042,0.241,0.076,0.358,0.106l0.184-0.279c-0.111-0.103-0.268-0.193-0.47-0.273
		C44.58,2.75,44.278,2.69,43.979,2.69z M46.164,7.55V4.009l-0.103-0.143L43.8,7.55H46.164z"/>
	<path fill="#FFFFFF" d="M49.063,1.144l0.028,0.064c-0.284,0.182-0.503,0.363-0.654,0.545c-0.238,0.277-0.356,0.577-0.356,0.897
		v7.067c0,0.331,0.038,0.631,0.114,0.897c0.075,0.268,0.194,0.4,0.355,0.4c0.266,0,0.508-0.096,0.727-0.288l0.156,0.24
		c-0.332,0.314-0.589,0.563-0.769,0.748c-0.541,0.553-0.916,0.991-1.125,1.316c-0.332-0.325-0.574-0.655-0.727-0.991
		c-0.066-0.141-0.185-0.509-0.355-1.105c-0.428,0.342-0.814,0.681-1.161,1.017s-0.69,0.669-1.032,1
		c-0.313-0.182-0.859-0.539-1.638-1.072c-0.617-0.416-0.978-0.624-1.082-0.624c-0.181,0-0.33,0.043-0.448,0.128
		c-0.119,0.086-0.179,0.251-0.179,0.496c0,0.086,0.036,0.192,0.107,0.32c0.071,0.128,0.106,0.234,0.106,0.319
		c0,0.16-0.026,0.285-0.078,0.376c-0.053,0.091-0.149,0.137-0.292,0.137c-0.143,0-0.259-0.067-0.349-0.2
		c-0.091-0.134-0.136-0.307-0.136-0.521c0-0.234,0.232-0.757,0.698-1.567c0.143-0.245,0.56-0.923,1.253-2.032
		c-0.589-0.684-0.907-1.059-0.954-1.122c-0.484-0.674-0.727-1.534-0.727-2.582c0-0.908,0.38-1.769,1.14-2.581
		c0.797-0.855,1.704-1.283,2.72-1.283c0.73,0,1.367,0.146,1.908,0.438c0.18,0.098,0.541,0.33,1.082,0.698
		c0.228-0.427,0.569-0.741,1.025-0.944C48.573,1.272,48.787,1.209,49.063,1.144 M42.457,8.33l2.121-3.456
		c-0.104-0.096-0.204-0.192-0.299-0.289c-0.104-0.074-0.242-0.112-0.413-0.112c-0.476,0-0.879,0.294-1.212,0.88
		c-0.009-0.042-0.014-0.111-0.014-0.208c0-0.395,0.145-0.76,0.435-1.096c0.289-0.336,0.647-0.504,1.074-0.504
		c0.352,0,0.556,0.006,0.612,0.016c0.152,0.054,0.323,0.102,0.513,0.145l0.385-0.584c-0.133-0.194-0.363-0.356-0.69-0.485
		c-0.327-0.13-0.657-0.195-0.99-0.195c-0.646,0-1.276,0.289-1.894,0.867c-0.664,0.62-0.997,1.305-0.997,2.054
		c0,0.6,0.103,1.146,0.307,1.637C41.599,7.49,41.953,7.934,42.457,8.33 M43.353,7.8h3.062V3.928l-0.37-0.512L43.353,7.8
		 M45.246,11.497l1.168-1.008V9.001h-3.788l-0.541,0.864L45.246,11.497 M49.353,0.563l-0.405,0.095
		c-0.311,0.073-0.547,0.144-0.723,0.219c-0.387,0.172-0.709,0.411-0.963,0.712c-0.33-0.219-0.564-0.366-0.71-0.445
		c-0.614-0.331-1.336-0.499-2.147-0.499c-1.156,0-2.194,0.485-3.086,1.442c-0.845,0.904-1.274,1.887-1.274,2.922
		c0,1.15,0.276,2.116,0.821,2.874c0.025,0.033,0.078,0.105,0.741,0.877c-0.561,0.899-0.928,1.496-1.066,1.734
		c-0.675,1.175-0.766,1.579-0.766,1.819c0,0.315,0.075,0.584,0.222,0.801c0.183,0.27,0.454,0.419,0.762,0.419
		c0.435,0,0.641-0.242,0.724-0.386c0.099-0.173,0.146-0.377,0.146-0.627c0-0.174-0.056-0.358-0.17-0.563
		c-0.039-0.07-0.046-0.1-0.046-0.101c0.001-0.037,0.005-0.065,0.009-0.084c0.018-0.006,0.039-0.01,0.06-0.013
		c0.083,0.039,0.307,0.161,0.863,0.535c0.793,0.543,1.339,0.901,1.667,1.09l0.327,0.189l0.271-0.263l1.032-1
		c0.173-0.167,0.357-0.337,0.552-0.506c0.085,0.265,0.132,0.38,0.165,0.45c0.174,0.383,0.454,0.768,0.829,1.135l0.439,0.43
		l0.332-0.516c0.189-0.294,0.546-0.71,1.062-1.237c0.177-0.182,0.429-0.426,0.755-0.735l0.302-0.286l-0.227-0.349l-0.156-0.24
		L49.38,9.971l-0.434,0.382c-0.087,0.076-0.173,0.125-0.265,0.148c-0.002-0.006-0.004-0.013-0.006-0.02
		c-0.064-0.223-0.096-0.478-0.096-0.762V2.651c0-0.2,0.077-0.387,0.236-0.572c0.122-0.146,0.303-0.295,0.544-0.449l0.361-0.231
		l-0.172-0.392L49.52,0.943L49.353,0.563L49.353,0.563z M42.347,7.553c-0.218-0.235-0.382-0.485-0.491-0.747
		c-0.178-0.429-0.269-0.915-0.269-1.445c0-0.609,0.274-1.161,0.838-1.688C42.953,3.18,43.46,2.94,43.979,2.94
		c0.222,0,0.447,0.037,0.671,0.111c-0.1-0.004-0.255-0.006-0.5-0.006c-0.569,0-1.072,0.234-1.453,0.678
		c-0.368,0.427-0.556,0.905-0.556,1.422c0,0.133,0.008,0.231,0.024,0.31l0.271,1.294l0.653-1.15
		c0.356-0.627,0.673-0.627,0.777-0.627c0.025,0,0.046,0.001,0.063,0.004L42.347,7.553L42.347,7.553z M44.246,7.3l1.668-2.717V7.3
		H44.246L44.246,7.3z M42.903,9.501h3.011v0.759l-0.739,0.638L42.797,9.67L42.903,9.501L42.903,9.501z"/>
</g>
</svg>
