<?xml version="1.0" encoding="utf-8"?>
<!-- Generator: Adobe Illustrator 18.1.1, SVG Export Plug-In . SVG Version: 6.00 Build 0)  -->
<svg version="1.1" id="marker" xmlns="http://www.w3.org/2000/svg" xmlns:xlink="http://www.w3.org/1999/xlink" x="0px" y="0px"
	 viewBox="0 0 50 50" enable-background="new 0 0 50 50" xml:space="preserve">
<circle cx="25" cy="25" r="25"/>
<path fill="#B51818" d="M25,12.5c-6.9,0-12.5,5.6-12.5,12.5c0,6.9,5.6,12.5,12.5,12.5S37.5,31.9,37.5,25
	C37.5,18.1,31.9,12.5,25,12.5z M25,30.9c-3.3,0-5.9-2.6-5.9-5.9s2.6-5.9,5.9-5.9s5.9,2.6,5.9,5.9S28.3,30.9,25,30.9z"/>
<path fill="#B51818" d="M19,19V7c0-3.3,2.7-6,6-6h0c3.3,0,6,2.7,6,6v12H19z"/>
<path fill="#B51818" d="M31,31v12c0,3.3-2.7,6-6,6h0c-3.3,0-6-2.7-6-6V31H31z"/>
<path fill="#B51818" d="M31,19h12c3.3,0,6,2.7,6,6v0c0,3.3-2.7,6-6,6H31V19z"/>
<path fill="#B51818" d="M19,31H7c-3.3,0-6-2.7-6-6v0c0-3.3,2.7-6,6-6h12V31z"/>
</svg>
