<?xml version="1.0" encoding="utf-8"?>
<!-- Generator: Adobe Illustrator 18.1.1, SVG Export Plug-In . SVG Version: 6.00 Build 0)  -->
<svg version="1.1" id="Icon" xmlns="http://www.w3.org/2000/svg" xmlns:xlink="http://www.w3.org/1999/xlink" x="0px" y="0px"
	 viewBox="0 0 50 50" enable-background="new 0 0 50 50" xml:space="preserve">
<g display="none">
	<path display="inline" fill="#FFFFFF" d="M40,32c0,8.3-6.7,15-15,15s-15-6.7-15-15S25,4.9,25,4.9S40,23.8,40,32z"/>
	<path display="inline" d="M25,50c-9.9,0-18-8.1-18-18C7,23,21,5,22.6,3L25,0l2.4,3C29,5,43,23,43,32C43,41.9,34.9,50,25,50z
		 M25,9.9C19.7,17.1,13.1,27.5,13.1,32c0,6.6,5.3,11.9,11.9,11.9S36.9,38.6,36.9,32C36.9,27.5,30.3,17.1,25,9.9z"/>
</g>
<g>
	<path fill="#FFFFFF" d="M25,43.5C14.8,43.5,6.5,35.2,6.5,25S14.8,6.5,25,6.5S43.5,14.8,43.5,25S35.2,43.5,25,43.5z"/>
	<path d="M25,9.5c8.5,0,15.5,7,15.5,15.5s-7,15.5-15.5,15.5S9.5,33.5,9.5,25S16.5,9.5,25,9.5 M25,3.5C13.1,3.5,3.5,13.1,3.5,25
		S13.1,46.5,25,46.5S46.5,36.9,46.5,25S36.9,3.5,25,3.5L25,3.5z"/>
</g>
</svg>
