<?xml version="1.0" encoding="utf-8"?>
<!-- Generator: Adobe Illustrator 18.1.1, SVG Export Plug-In . SVG Version: 6.00 Build 0)  -->
<svg version="1.1" id="arrows" xmlns="http://www.w3.org/2000/svg" xmlns:xlink="http://www.w3.org/1999/xlink" x="0px" y="0px"
	 viewBox="0 0 50 50" enable-background="new 0 0 50 50" xml:space="preserve">
<g>
	<path fill="#FFFFFF" d="M3.3,24.5c-0.7,0-1.4-0.3-2-0.8c-0.6-0.5-0.9-1.3-0.9-2l0-18.4c0-1.5,1.3-2.8,2.8-2.8l18.4,0
		c1.4,0,2.3,0.9,2.6,1.7c0.3,0.8,0.4,2.1-0.6,3.1L5.3,23.7C4.6,24.4,3.8,24.5,3.3,24.5C3.3,24.5,3.3,24.5,3.3,24.5z"/>
	<path fill="#FFFFFF" d="M21.7,1c1.1,0,1.9,0.7,2.1,1.4c0.3,0.7,0.3,1.7-0.5,2.5L4.9,23.3C4.4,23.9,3.8,24,3.3,24
		c-0.6,0-1.2-0.2-1.6-0.6C1.4,23.1,1,22.5,1,21.7L1,3.3C1,2,2,1,3.3,1L21.7,1L21.7,1 M21.7,0C21.7,0,21.7,0,21.7,0L3.3,0
		C1.5,0,0,1.5,0,3.3l0,18.4c0,2,1.6,3.3,3.3,3.3c0.8,0,1.6-0.3,2.3-1L24,5.7C26.1,3.6,24.6,0,21.7,0L21.7,0z"/>
</g>
<g>
	<path fill="#FFFFFF" d="M28.3,49.5c-1.4,0-2.3-0.9-2.6-1.7s-0.4-2.1,0.6-3.1l18.4-18.4c0.7-0.7,1.4-0.8,2-0.8c0.7,0,1.4,0.3,2,0.8
		c0.6,0.5,0.9,1.3,0.9,2l0,18.4c0,1.5-1.3,2.8-2.8,2.8L28.3,49.5L28.3,49.5z"/>
	<path fill="#FFFFFF" d="M46.7,26c0.6,0,1.2,0.2,1.6,0.6c0.3,0.3,0.7,0.8,0.7,1.7l0,18.4c0,1.3-1,2.3-2.3,2.3l-18.4,0
		c-1.1,0-1.9-0.7-2.1-1.4c-0.3-0.7-0.3-1.7,0.5-2.5l18.4-18.4C45.6,26.1,46.2,26,46.7,26 M46.7,25c-0.8,0-1.6,0.3-2.3,1L26,44.3
		c-2.1,2.1-0.6,5.7,2.3,5.7c0,0,0,0,0,0l18.4,0c1.8,0,3.3-1.5,3.3-3.3l0-18.4C50,26.3,48.4,25,46.7,25L46.7,25z"/>
</g>
<line fill="#FFFFFF" stroke="#FFFFFF" stroke-width="8" stroke-linecap="round" stroke-miterlimit="10" x1="7.1" y1="7.1" x2="42.9" y2="42.9"/>
</svg>
